<mxfile host="app.diagrams.net" agent="Mozilla/5.0 (X11; Linux x86_64) AppleWebKit/537.36 (KHTML, like Gecko) Chrome/130.0.0.0 Safari/537.36" version="24.9.3">
  <diagram id="C5RBs43oDa-KdzZeNtuy" name="Page-1">
    <mxGraphModel dx="1434" dy="693" grid="1" gridSize="10" guides="1" tooltips="1" connect="1" arrows="1" fold="1" page="1" pageScale="1" pageWidth="827" pageHeight="1169" math="0" shadow="0">
      <root>
        <mxCell id="WIyWlLk6GJQsqaUBKTNV-0" />
        <mxCell id="WIyWlLk6GJQsqaUBKTNV-1" parent="WIyWlLk6GJQsqaUBKTNV-0" />
        <mxCell id="qDYdRChtb0Kntr4lQntc-13" style="edgeStyle=orthogonalEdgeStyle;rounded=0;orthogonalLoop=1;jettySize=auto;html=1;" edge="1" parent="WIyWlLk6GJQsqaUBKTNV-1" source="qDYdRChtb0Kntr4lQntc-0" target="qDYdRChtb0Kntr4lQntc-2">
          <mxGeometry relative="1" as="geometry" />
        </mxCell>
        <mxCell id="qDYdRChtb0Kntr4lQntc-37" style="edgeStyle=orthogonalEdgeStyle;rounded=0;orthogonalLoop=1;jettySize=auto;html=1;" edge="1" parent="WIyWlLk6GJQsqaUBKTNV-1" source="qDYdRChtb0Kntr4lQntc-0" target="qDYdRChtb0Kntr4lQntc-1">
          <mxGeometry relative="1" as="geometry" />
        </mxCell>
        <mxCell id="qDYdRChtb0Kntr4lQntc-38" style="edgeStyle=orthogonalEdgeStyle;rounded=0;orthogonalLoop=1;jettySize=auto;html=1;" edge="1" parent="WIyWlLk6GJQsqaUBKTNV-1" source="qDYdRChtb0Kntr4lQntc-0" target="qDYdRChtb0Kntr4lQntc-3">
          <mxGeometry relative="1" as="geometry" />
        </mxCell>
        <mxCell id="qDYdRChtb0Kntr4lQntc-0" value="Alice WebID&amp;nbsp;" style="rounded=1;whiteSpace=wrap;html=1;" vertex="1" parent="WIyWlLk6GJQsqaUBKTNV-1">
          <mxGeometry x="280" y="100" width="120" height="80" as="geometry" />
        </mxCell>
        <mxCell id="qDYdRChtb0Kntr4lQntc-18" value="" style="edgeStyle=orthogonalEdgeStyle;rounded=0;orthogonalLoop=1;jettySize=auto;html=1;" edge="1" parent="WIyWlLk6GJQsqaUBKTNV-1" source="qDYdRChtb0Kntr4lQntc-1" target="qDYdRChtb0Kntr4lQntc-6">
          <mxGeometry relative="1" as="geometry" />
        </mxCell>
        <mxCell id="qDYdRChtb0Kntr4lQntc-1" value="Agent&lt;br&gt;Registry" style="rounded=1;whiteSpace=wrap;html=1;" vertex="1" parent="WIyWlLk6GJQsqaUBKTNV-1">
          <mxGeometry x="580" y="220" width="120" height="80" as="geometry" />
        </mxCell>
        <mxCell id="qDYdRChtb0Kntr4lQntc-14" value="" style="edgeStyle=orthogonalEdgeStyle;rounded=0;orthogonalLoop=1;jettySize=auto;html=1;" edge="1" parent="WIyWlLk6GJQsqaUBKTNV-1" source="qDYdRChtb0Kntr4lQntc-2" target="qDYdRChtb0Kntr4lQntc-4">
          <mxGeometry relative="1" as="geometry" />
        </mxCell>
        <mxCell id="qDYdRChtb0Kntr4lQntc-2" value="Data&lt;br&gt;Registry" style="rounded=1;whiteSpace=wrap;html=1;" vertex="1" parent="WIyWlLk6GJQsqaUBKTNV-1">
          <mxGeometry x="280" y="220" width="120" height="80" as="geometry" />
        </mxCell>
        <mxCell id="qDYdRChtb0Kntr4lQntc-32" style="edgeStyle=orthogonalEdgeStyle;rounded=0;orthogonalLoop=1;jettySize=auto;html=1;" edge="1" parent="WIyWlLk6GJQsqaUBKTNV-1" source="qDYdRChtb0Kntr4lQntc-3" target="qDYdRChtb0Kntr4lQntc-21">
          <mxGeometry relative="1" as="geometry" />
        </mxCell>
        <mxCell id="qDYdRChtb0Kntr4lQntc-3" value="Authorization&lt;br&gt;Registry" style="rounded=1;whiteSpace=wrap;html=1;" vertex="1" parent="WIyWlLk6GJQsqaUBKTNV-1">
          <mxGeometry x="40" y="220" width="120" height="80" as="geometry" />
        </mxCell>
        <mxCell id="qDYdRChtb0Kntr4lQntc-15" value="" style="edgeStyle=orthogonalEdgeStyle;rounded=0;orthogonalLoop=1;jettySize=auto;html=1;" edge="1" parent="WIyWlLk6GJQsqaUBKTNV-1" source="qDYdRChtb0Kntr4lQntc-4" target="qDYdRChtb0Kntr4lQntc-5">
          <mxGeometry relative="1" as="geometry" />
        </mxCell>
        <mxCell id="qDYdRChtb0Kntr4lQntc-4" value="Data&lt;br&gt;Registration for Events shapetree" style="rounded=1;whiteSpace=wrap;html=1;" vertex="1" parent="WIyWlLk6GJQsqaUBKTNV-1">
          <mxGeometry x="280" y="340" width="120" height="80" as="geometry" />
        </mxCell>
        <mxCell id="qDYdRChtb0Kntr4lQntc-26" style="edgeStyle=orthogonalEdgeStyle;rounded=0;orthogonalLoop=1;jettySize=auto;html=1;" edge="1" parent="WIyWlLk6GJQsqaUBKTNV-1" source="qDYdRChtb0Kntr4lQntc-5" target="qDYdRChtb0Kntr4lQntc-25">
          <mxGeometry relative="1" as="geometry" />
        </mxCell>
        <mxCell id="qDYdRChtb0Kntr4lQntc-27" style="edgeStyle=orthogonalEdgeStyle;rounded=0;orthogonalLoop=1;jettySize=auto;html=1;" edge="1" parent="WIyWlLk6GJQsqaUBKTNV-1" source="qDYdRChtb0Kntr4lQntc-5" target="qDYdRChtb0Kntr4lQntc-24">
          <mxGeometry relative="1" as="geometry" />
        </mxCell>
        <mxCell id="qDYdRChtb0Kntr4lQntc-5" value="Data Registration for Events shapetree&lt;br&gt;(LDP container)" style="rounded=1;whiteSpace=wrap;html=1;" vertex="1" parent="WIyWlLk6GJQsqaUBKTNV-1">
          <mxGeometry x="280" y="460" width="120" height="80" as="geometry" />
        </mxCell>
        <mxCell id="qDYdRChtb0Kntr4lQntc-19" value="" style="edgeStyle=orthogonalEdgeStyle;rounded=0;orthogonalLoop=1;jettySize=auto;html=1;" edge="1" parent="WIyWlLk6GJQsqaUBKTNV-1" source="qDYdRChtb0Kntr4lQntc-6" target="qDYdRChtb0Kntr4lQntc-7">
          <mxGeometry relative="1" as="geometry" />
        </mxCell>
        <mxCell id="qDYdRChtb0Kntr4lQntc-6" value="Social Agent Registration&lt;br&gt;for Bob" style="rounded=1;whiteSpace=wrap;html=1;" vertex="1" parent="WIyWlLk6GJQsqaUBKTNV-1">
          <mxGeometry x="580" y="340" width="120" height="80" as="geometry" />
        </mxCell>
        <mxCell id="qDYdRChtb0Kntr4lQntc-10" style="edgeStyle=orthogonalEdgeStyle;rounded=0;orthogonalLoop=1;jettySize=auto;html=1;" edge="1" parent="WIyWlLk6GJQsqaUBKTNV-1" source="qDYdRChtb0Kntr4lQntc-7" target="qDYdRChtb0Kntr4lQntc-8">
          <mxGeometry relative="1" as="geometry" />
        </mxCell>
        <mxCell id="qDYdRChtb0Kntr4lQntc-20" style="edgeStyle=orthogonalEdgeStyle;rounded=0;orthogonalLoop=1;jettySize=auto;html=1;" edge="1" parent="WIyWlLk6GJQsqaUBKTNV-1" source="qDYdRChtb0Kntr4lQntc-7" target="qDYdRChtb0Kntr4lQntc-9">
          <mxGeometry relative="1" as="geometry" />
        </mxCell>
        <mxCell id="qDYdRChtb0Kntr4lQntc-7" value="Access Grant&lt;br&gt;for Bob" style="rounded=1;whiteSpace=wrap;html=1;" vertex="1" parent="WIyWlLk6GJQsqaUBKTNV-1">
          <mxGeometry x="580" y="460" width="120" height="80" as="geometry" />
        </mxCell>
        <mxCell id="qDYdRChtb0Kntr4lQntc-33" style="edgeStyle=orthogonalEdgeStyle;rounded=0;orthogonalLoop=1;jettySize=auto;html=1;" edge="1" parent="WIyWlLk6GJQsqaUBKTNV-1" source="qDYdRChtb0Kntr4lQntc-8" target="qDYdRChtb0Kntr4lQntc-24">
          <mxGeometry relative="1" as="geometry">
            <Array as="points">
              <mxPoint x="570" y="700" />
              <mxPoint x="290" y="700" />
            </Array>
          </mxGeometry>
        </mxCell>
        <mxCell id="qDYdRChtb0Kntr4lQntc-8" value="Data Grant&amp;nbsp;&lt;br&gt;for Event #1" style="rounded=1;whiteSpace=wrap;html=1;" vertex="1" parent="WIyWlLk6GJQsqaUBKTNV-1">
          <mxGeometry x="510" y="590" width="120" height="80" as="geometry" />
        </mxCell>
        <mxCell id="qDYdRChtb0Kntr4lQntc-34" style="edgeStyle=orthogonalEdgeStyle;rounded=0;orthogonalLoop=1;jettySize=auto;html=1;" edge="1" parent="WIyWlLk6GJQsqaUBKTNV-1">
          <mxGeometry relative="1" as="geometry">
            <mxPoint x="715" y="670" as="sourcePoint" />
            <mxPoint x="410" y="670" as="targetPoint" />
            <Array as="points">
              <mxPoint x="715" y="730" />
              <mxPoint x="410" y="730" />
            </Array>
          </mxGeometry>
        </mxCell>
        <mxCell id="qDYdRChtb0Kntr4lQntc-9" value="Data Grant&amp;nbsp;&lt;br&gt;for Event #2" style="rounded=1;whiteSpace=wrap;html=1;" vertex="1" parent="WIyWlLk6GJQsqaUBKTNV-1">
          <mxGeometry x="650" y="590" width="120" height="80" as="geometry" />
        </mxCell>
        <mxCell id="qDYdRChtb0Kntr4lQntc-31" style="edgeStyle=orthogonalEdgeStyle;rounded=0;orthogonalLoop=1;jettySize=auto;html=1;" edge="1" parent="WIyWlLk6GJQsqaUBKTNV-1" source="qDYdRChtb0Kntr4lQntc-21" target="qDYdRChtb0Kntr4lQntc-22">
          <mxGeometry relative="1" as="geometry" />
        </mxCell>
        <mxCell id="qDYdRChtb0Kntr4lQntc-21" value="Access&lt;br&gt;Authorization&lt;br&gt;for Bob" style="rounded=1;whiteSpace=wrap;html=1;" vertex="1" parent="WIyWlLk6GJQsqaUBKTNV-1">
          <mxGeometry x="40" y="460" width="120" height="80" as="geometry" />
        </mxCell>
        <mxCell id="qDYdRChtb0Kntr4lQntc-35" style="edgeStyle=orthogonalEdgeStyle;rounded=0;orthogonalLoop=1;jettySize=auto;html=1;" edge="1" parent="WIyWlLk6GJQsqaUBKTNV-1" source="qDYdRChtb0Kntr4lQntc-22" target="qDYdRChtb0Kntr4lQntc-24">
          <mxGeometry relative="1" as="geometry">
            <Array as="points">
              <mxPoint x="100" y="700" />
              <mxPoint x="260" y="700" />
            </Array>
          </mxGeometry>
        </mxCell>
        <mxCell id="qDYdRChtb0Kntr4lQntc-36" style="edgeStyle=orthogonalEdgeStyle;rounded=0;orthogonalLoop=1;jettySize=auto;html=1;" edge="1" parent="WIyWlLk6GJQsqaUBKTNV-1" source="qDYdRChtb0Kntr4lQntc-22" target="qDYdRChtb0Kntr4lQntc-25">
          <mxGeometry relative="1" as="geometry">
            <Array as="points">
              <mxPoint x="100" y="730" />
              <mxPoint x="390" y="730" />
            </Array>
          </mxGeometry>
        </mxCell>
        <mxCell id="qDYdRChtb0Kntr4lQntc-22" value="Data&amp;nbsp; Authorization for Events shared with Bob" style="rounded=1;whiteSpace=wrap;html=1;" vertex="1" parent="WIyWlLk6GJQsqaUBKTNV-1">
          <mxGeometry x="40" y="590" width="120" height="80" as="geometry" />
        </mxCell>
        <mxCell id="qDYdRChtb0Kntr4lQntc-24" value="Event #1&amp;nbsp;&lt;br&gt;Data Instance&lt;br&gt;(LDP resource)" style="rounded=1;whiteSpace=wrap;html=1;" vertex="1" parent="WIyWlLk6GJQsqaUBKTNV-1">
          <mxGeometry x="215" y="590" width="120" height="80" as="geometry" />
        </mxCell>
        <mxCell id="qDYdRChtb0Kntr4lQntc-25" value="Event #2&lt;br&gt;Data Instance&lt;br&gt;(LDP resource)" style="rounded=1;whiteSpace=wrap;html=1;" vertex="1" parent="WIyWlLk6GJQsqaUBKTNV-1">
          <mxGeometry x="345" y="590" width="120" height="80" as="geometry" />
        </mxCell>
      </root>
    </mxGraphModel>
  </diagram>
</mxfile>
